<svg width="100%" height="100%" viewBox="0 0 9693 10863" version="1.1" xmlns="http://www.w3.org/2000/svg" xmlns:xlink="http://www.w3.org/1999/xlink" xml:space="preserve" xmlns:serif="http://www.serif.com/" style="fill:rgba(0,0,0,1);fill-rule:evenodd;clip-rule:evenodd;stroke-linejoin:round;stroke-miterlimit:2;"><g><path d="M4956.25,0.422c1420.79,-17.445 2310.29,508.254 3090.62,1131.25c178.466,142.481 351.632,311.86 493.75,490.625c40.532,50.984 146.282,140.295 162.5,203.125c-174.983,71.867 -350.018,143.757 -525,215.625c-287.818,118.322 -594.993,192.693 -918.75,275c-126.734,32.218 -258.065,51.64 -393.75,81.25c-44.189,9.643 -120.099,36.065 -165.625,25c-9.374,-162.484 -18.752,-325.017 -28.125,-487.5c8.512,-97.988 35.616,-237.292 6.25,-328.125c-34.266,-105.987 -143.101,-109.51 -193.75,-190.625c-62.198,-99.608 -97.208,-207.878 -162.5,-300c-202.746,-286.06 -496.178,-486.054 -887.5,-584.375c-138.733,-34.857 -351.616,-57.1 -512.5,-21.875c-109.306,23.931 -212.582,49.815 -306.25,90.625c-503.88,219.531 -791.728,689.148 -1003.12,1203.12c-48.068,116.869 -106.558,238.565 -137.5,368.75c-108.875,29.102 -212.285,31.872 -306.25,68.75c-52.078,26.038 -104.173,52.086 -156.25,78.125c-34.372,-6.25 -68.754,-12.501 -103.125,-18.75c-90.617,-15.214 -180.231,15.966 -231.25,46.875c-108.138,65.512 -146.758,167.217 -221.875,265.625c-159.021,-74.62 -273.914,57.919 -331.25,156.25c-25.216,43.244 -42.342,119.146 -93.75,134.375c-78.117,-4.166 -156.258,-8.334 -234.375,-12.5c-118.348,20.109 -181.409,83.864 -234.375,168.75c-205.573,16.693 -390.437,72.146 -578.125,93.75c-28.978,3.335 -116.431,-65.074 -146.875,-78.125c-70.937,-30.41 -123.988,-3.874 -184.375,12.5l0,-12.5c48.953,-120.821 97.921,-241.679 146.875,-362.5c81.773,-186.921 185.204,-366.788 290.625,-534.375c550.205,-874.663 1380.93,-1529.91 2425,-1909.38c290.339,-105.524 599.449,-164.21 937.5,-228.125c115.613,-11.458 231.261,-22.918 346.875,-34.375c52.077,-2.083 104.172,-4.167 156.25,-6.25Z"/><path d="M5040.62,581.672c607.787,-11.024 1052.76,307.532 1290.62,668.75c48.773,74.066 94.195,160.931 128.125,246.875c17.578,44.526 23.637,124.877 56.25,156.25l3.125,0c-3.125,-47.912 -6.251,-95.838 -9.375,-143.75c36.81,17.88 82.701,43.965 103.125,78.125c37.482,62.692 10.013,313.274 -3.125,384.375l-3.125,0l-0,-6.25c-30.206,-73.951 -60.42,-147.925 -90.625,-221.875c28.122,126.029 56.252,252.096 84.375,378.125c38.509,174.331 35.13,362.998 65.625,553.125c12.747,79.478 10.297,308.264 56.25,337.5c-6.25,-48.954 -12.501,-97.922 -18.75,-146.875c4.166,1.042 8.334,2.083 12.5,3.125c30.505,79.685 103.089,144.145 125,221.875c8.196,29.079 -34.02,128.878 -43.75,159.375l-3.125,0c-45.863,-24.379 -69.875,-102.638 -96.875,-146.875c-68.743,-109.364 -137.508,-218.761 -206.25,-328.125c-25.066,-40.177 -50.053,-113.902 -90.625,-137.5c89.574,203.105 179.176,406.27 268.75,609.375c36.924,74.41 128.09,157.668 106.25,278.125c-35.159,193.913 -137.053,322.913 -178.125,515.625c-6.25,87.491 -12.501,175.009 -18.75,262.5c-29.063,157.568 -148.746,347.56 -278.125,400c59.66,-77.654 147.901,-120.336 190.625,-218.75c58.584,-134.95 12.103,-302.034 43.75,-468.75c31.454,-165.703 111.467,-280.546 146.875,-434.375c35.316,-153.434 -55.743,-249.835 -137.5,-315.625c-25.264,-20.33 -49.532,-58.852 -81.25,-62.5c31.246,42.704 62.503,85.42 93.75,128.125l-0,3.125l-3.125,0c-87.672,-38.38 -156.21,-112.695 -228.125,-168.75c-119.78,-91.658 -239.596,-183.343 -359.375,-275c-71.507,-54.924 -132.604,-148.266 -225,-178.125c-69.158,-22.35 -416.397,54.802 -478.125,81.25c-39.131,16.766 -71.116,71.078 -96.875,103.125c-74.993,79.158 -150.008,158.341 -225,237.5c-80.927,76.429 -170.419,151.248 -268.75,209.375c-60.411,26.038 -120.84,52.086 -181.25,78.125c2.083,1.042 4.166,2.083 6.25,3.125c69.626,83.169 249.934,119.613 303.125,209.375c-3.125,2.083 -6.251,4.167 -9.375,6.25c-65.939,29.438 -361.499,-88.357 -384.375,-121.875c-12.499,-42.705 -25.002,-85.421 -37.5,-128.125c16.499,-22.699 57.433,-7.372 81.25,0c2.083,4.166 4.166,8.334 6.25,12.5c-3.125,4.166 -6.251,8.334 -9.375,12.5c-7.291,4.166 -14.584,8.334 -21.875,12.5c98.457,-9.241 168.42,-75.85 234.375,-121.875c172.657,-120.487 388.319,-320.087 512.5,-487.5c-1.042,-1.042 -2.084,-2.083 -3.125,-3.125c-37.806,12.434 -281.734,77.378 -300,71.875l6.25,0c85.408,-24.998 170.841,-50.003 256.25,-75c153.676,-46.29 502.25,-191.514 671.875,-118.75c114.228,49 233.421,179.505 331.25,256.25c32.248,25.298 60.535,64.137 106.25,75c1.041,-1.042 2.083,-2.083 3.125,-3.125l-0,-12.5c-89.574,-85.409 -179.176,-170.842 -268.75,-256.25c-21.507,-28.218 -69.792,-92.066 -28.125,-125c50.699,12.009 86.118,40.473 143.75,43.75c-17.707,-31.247 -35.419,-62.504 -53.125,-93.75c1.058,-18.15 4.282,-29.545 15.625,-37.5c3.124,-2.083 6.25,-4.167 9.375,-6.25c59.684,14.308 82.389,75.94 146.875,84.375l-0,-3.125c-63.385,-123.505 -233.395,-220.187 -356.25,-284.375c-49.995,-23.956 -100.005,-47.919 -150,-71.875l-0,-9.375c21.104,-9.714 52.081,-10.477 81.25,-15.625c-57.271,-53.92 -372.713,-30.913 -462.5,-12.5c-280.731,57.571 -526.974,125.797 -740.625,250c-92.655,53.864 -186.241,137.777 -278.125,181.25c65.143,-83.582 183.853,-142.623 275,-200c186.903,-117.657 391.684,-209.403 637.5,-271.875c88.661,-22.533 173.227,-17.723 275,-34.375c82.906,-13.566 197.932,-8.262 275,6.25c102.326,19.267 186.719,62.493 271.875,81.25c-181.884,-187.127 -668.304,-170.132 -971.875,-240.625c-98.351,-22.838 -234.241,-40.438 -300,-100c44.787,13.54 89.587,27.084 134.375,40.625c59.369,7.291 118.755,14.584 178.125,21.875c66.66,2.083 133.34,4.167 200,6.25c70.826,3.124 141.673,6.25 212.5,9.375c150.831,24.499 297.788,22.365 418.75,71.875c158.34,64.809 271.11,166.821 393.75,265.625c48.953,48.953 97.921,97.921 146.875,146.875l-0,-3.125c-124.103,-229.798 -336.745,-430.877 -537.5,-587.5c-59.268,-46.239 -89.37,-127.87 -150,-175c-201.824,-156.884 -611.975,-318.843 -996.875,-234.375c-152.48,33.462 -291.48,77.662 -409.375,146.875c-59.37,39.579 -118.756,79.17 -178.125,118.75c5.207,-5.208 10.417,-10.418 15.625,-15.625c37.746,-71.869 157.475,-155.572 225,-203.125c208.52,-146.848 459.597,-268.724 812.5,-268.75c55.202,1.042 110.422,2.083 165.625,3.125c71.867,12.499 143.757,25.001 215.625,37.5c49.995,15.623 100.005,31.252 150,46.875c-57.905,-35.409 -136.504,-47.342 -206.25,-68.75c-150.97,-46.341 -304.987,-57.921 -487.5,-87.5c-64.577,-2.083 -129.173,-4.167 -193.75,-6.25c-57.286,5.207 -114.59,10.417 -171.875,15.625c-42.705,8.332 -85.421,16.667 -128.125,25l-0,-3.125c5.207,-6.25 10.417,-12.501 15.625,-18.75c32.288,-26.039 64.586,-52.087 96.875,-78.125c64.2,-47.257 140.214,-95.161 215.625,-128.125c79.158,-27.081 158.341,-54.169 237.5,-81.25c-275.159,20.839 -491.265,117.825 -690.625,212.5c33.046,-119.543 273.271,-321.249 378.125,-384.375c69.785,-30.205 139.59,-60.42 209.375,-90.625c-357.738,30.763 -713.313,251.584 -896.875,462.5c-39.58,55.203 -79.171,110.422 -118.75,165.625c-15.881,26.242 -21.083,61.907 -43.75,81.25l-0,-18.75c126.317,-331.355 396.053,-544.086 725,-671.875c68.24,-26.51 148.142,-42.006 225,-56.25c37.496,-3.125 75.003,-6.251 112.5,-9.375Z"/><path d="M5700,1416.05c42.704,21.873 85.42,43.752 128.125,65.625c72.909,44.787 145.84,89.588 218.75,134.375c48.855,37.295 107.691,95.292 128.125,159.375c8.332,53.12 16.667,106.255 25,159.375c15.623,12.499 31.252,25.001 46.875,37.5c41.634,38.884 90.041,104.209 109.375,162.5l6.25,0l-0,-12.5c-22.358,-50.545 -43.642,-99.066 -75,-140.625c-19.79,-19.79 -39.586,-39.586 -59.375,-59.375c-33.037,-50.661 -22.506,-158.729 -62.5,-218.75c-92.818,-139.297 -301.911,-219.977 -465.625,-287.5Z"/><path d="M8634.38,1928.55l15.625,0c-25.478,74.063 -221.844,158.704 -296.875,196.875c-260.064,132.304 -542.972,219.431 -865.625,293.75c-107.207,24.693 -284.389,64.211 -406.25,25l-0,-6.25c1.041,-2.083 2.083,-4.167 3.125,-6.25c55.202,-13.541 110.422,-27.085 165.625,-40.625c172.531,-47.726 337.419,-85.831 496.875,-140.625c212.21,-72.924 418.349,-140.149 618.75,-218.75c89.574,-34.372 179.176,-68.754 268.75,-103.125Z"/><path d="M3684.38,2072.3c7.735,32.603 -47.481,109.348 -62.5,140.625c-59.856,124.639 -114.127,246.307 -175,365.625c-90.686,177.751 -211.53,340.257 -278.125,531.25c-37.246,106.818 -23.934,251.835 -59.375,368.75c-18.021,59.446 -55.156,106.007 -78.125,159.375c-41.83,97.189 -40.282,213.687 -31.25,337.5c-2.084,-1.042 -4.167,-2.083 -6.25,-3.125c-16.029,-57.167 -33.61,-112.434 -43.75,-181.25c-18.001,-122.154 53.839,-204.13 84.375,-281.25c18.273,-46.152 22.163,-104.623 31.25,-159.375c15.22,-91.704 -31.62,-310.683 -15.625,-346.875c94.27,-46.398 159.695,-165.927 218.75,-250c151.333,-215.445 276.26,-454.71 415.625,-681.25Z"/><path d="M8884.38,2084.8l9.375,0c28.122,44.787 56.252,89.588 84.375,134.375c91.757,145.81 180.287,297.382 253.125,462.5c103.555,234.751 200.42,478.773 281.25,743.75c54.926,180.06 81.667,371.983 121.875,565.625c11.457,117.696 22.917,235.428 34.375,353.125c19.765,123.573 34.239,381.57 12.5,515.625c-6.25,118.738 -12.501,237.512 -18.75,356.25c-38.654,231.067 -59.632,455.67 -112.5,662.5c-52.322,204.693 -101.331,398.177 -175,578.125c-15.623,41.662 -31.252,83.338 -46.875,125c-37.497,14.581 -75.004,29.168 -112.5,43.75c-96.326,37.83 -195.012,70.279 -300,103.125c-264.075,82.616 -546.793,118.913 -846.875,178.125c-166.402,32.834 -360.184,55.922 -546.875,56.25c1.041,-2.083 2.083,-4.167 3.125,-6.25c47.912,-14.582 95.837,-29.169 143.75,-43.75c134.728,-42.634 267.66,-73.869 378.125,-140.625c66.66,-49.995 133.34,-100.005 200,-150c69.785,-31.247 139.59,-62.504 209.375,-93.75c155.943,-91.16 277.009,-197.358 371.875,-350c46.967,-75.573 188.191,-335.802 162.5,-465.625c-24.879,-125.718 -108.82,-174.79 -162.5,-265.625c-50.099,-84.774 -50.372,-199.497 -103.125,-278.125c-38.095,-56.78 -123.39,-69.208 -165.625,-121.875c-47.913,-60.411 -95.838,-120.84 -143.75,-181.25c-13.382,-24.148 0.974,-45.182 -15.625,-68.75c-87.659,-35.383 -77.792,-112.266 -109.375,-203.125c-34.39,-98.936 -82.511,-198.495 -150,-265.625c-50.89,-50.619 -118.893,-68.634 -178.125,-112.5c-57.286,-68.743 -114.59,-137.508 -171.875,-206.25c-128.738,-137.968 -282.605,-264.04 -437.5,-375c-104.156,-68.743 -208.344,-137.508 -312.5,-206.25c-42.238,-26.43 -121.41,-50.631 -150,-90.625c13.869,-27.996 17.867,-61.649 28.125,-96.875l3.125,0c47.912,32.288 95.837,64.586 143.75,96.875c121.131,79.734 252.477,133.504 425,162.5c253.688,42.637 526.456,-215.674 750,-78.125c63.563,39.111 96.377,116.052 140.625,175c69.785,85.408 139.59,170.841 209.375,256.25c166,206.462 411.926,346.099 631.25,500c77.075,58.328 154.174,116.672 231.25,175l-0,-3.125c-51.647,-76.573 -105.867,-145.404 -162.5,-215.625c-34.372,-34.372 -68.754,-68.754 -103.125,-103.125l-0,-3.125c28.122,16.665 56.252,33.334 84.375,50c72.865,44.308 238.377,148.786 325,162.5c-1.042,-3.125 -2.084,-6.251 -3.125,-9.375c-63.873,-30.222 -114.88,-94.984 -168.75,-137.5c-88.451,-69.809 -180.286,-146.3 -246.875,-237.5c-174.622,-239.163 -279.553,-500.122 -534.375,-659.375c-261.752,-163.584 -671.173,-180.013 -1009.38,-265.625c-304.972,-77.201 -529.53,-200.642 -756.25,-346.875c1.041,-2.083 2.083,-4.167 3.125,-6.25c155.264,-4.423 321.25,-56.686 459.375,-93.75c384.506,-103.178 731.145,-209.604 1065.62,-353.125c115.462,-49.544 226.215,-104.092 337.5,-153.125c46.87,-22.915 93.755,-45.836 140.625,-68.75Z"/><path d="M3428.12,2269.17c-6.25,29.163 -12.501,58.336 -18.75,87.5c-335.963,96.249 -588.616,291.079 -740.625,571.875c-34.372,79.158 -68.754,158.341 -103.125,237.5c-12.499,40.621 -25.002,81.254 -37.5,121.875l-3.125,0c-22.318,-183.848 16.463,-387.549 71.875,-528.125c24.997,-52.078 50.002,-104.172 75,-156.25c-2.084,1.042 -4.167,2.083 -6.25,3.125c-30.825,67.438 -85.004,125.751 -115.625,196.875c-95.161,221.03 -135.696,566.718 -65.625,850c27.996,113.184 63.385,216.173 106.25,315.625c20.831,38.538 41.669,77.087 62.5,115.625l-3.125,0c-4.166,-3.125 -8.334,-6.251 -12.5,-9.375c-31.247,-45.829 -62.504,-91.672 -93.75,-137.5c-48.055,-76.984 -86.774,-172.653 -115.625,-265.625c-111.685,-359.908 -18.515,-753.276 115.625,-1012.5c61.449,-118.752 130.18,-223.151 259.375,-275c25.848,-10.374 106.239,-43.113 140.625,-18.75c-24.998,24.997 -50.003,50.002 -75,75c-71.474,90.096 -134.787,192.082 -178.125,309.375c3.124,-1.042 6.25,-2.083 9.375,-3.125c82.539,-223.083 430.914,-463.198 728.125,-478.125Z"/><path d="M4296.88,2653.55l6.25,0c-3.125,2.083 -6.251,4.167 -9.375,6.25c1.041,-2.083 2.083,-4.167 3.125,-6.25Z"/><path d="M2331.25,2666.05c34.205,-0.926 64.075,0.949 87.5,9.375c-12.499,39.579 -25.002,79.17 -37.5,118.75c-225.851,-2.9 -245.181,244.498 -493.75,212.5l-0,3.125c5.207,6.249 10.417,12.5 15.625,18.75c16.665,10.415 33.334,20.834 50,31.25c-4.459,53.996 -193.929,268.12 -234.375,325c-23.905,33.617 -45.554,82.234 -96.875,87.5c-2.084,-3.125 -4.167,-6.251 -6.25,-9.375c-55.326,-79.663 108.742,-348.115 137.5,-396.875c-1.042,-1.042 -2.084,-2.083 -3.125,-3.125c-183.356,110.501 -248.946,398.015 -300,640.625l-6.25,0c-26.006,-197.297 -120.384,-218.005 -240.625,-312.5c-57.286,-60.411 -114.59,-120.84 -171.875,-181.25l-0,-3.125c123.946,-22.915 247.929,-45.836 371.875,-68.75c28.648,-6.904 117.217,-22.974 131.25,-12.5c-20.441,43.256 -85.095,239.021 -65.625,296.875c1.041,-2.083 2.083,-4.167 3.125,-6.25c11.457,-40.621 22.917,-81.254 34.375,-121.875c30.101,-96.933 65.562,-191.666 121.875,-262.5c44.703,-56.232 134.443,-107.957 250,-90.625c45.316,6.796 118.296,7.951 156.25,-6.25c79.526,-29.755 119.954,-116.488 168.75,-178.125c34.56,-43.658 76.23,-62.828 128.125,-90.625Z"/><path d="M4862.5,2891.05l6.25,0l-6.25,0Z"/><path d="M6984.38,2959.8c86.722,11.836 232.288,88.054 318.75,121.875c192.795,75.414 385.593,116.805 612.5,162.5c-1.042,2.083 -2.084,4.167 -3.125,6.25c-88.518,1.633 -173.702,21.099 -262.5,6.25c-184.776,-30.9 -343.993,-79.063 -484.375,-153.125c-47.976,-25.311 -185.54,-87.237 -181.25,-143.75Z"/><path d="M6300,3050.42c-2.084,1.042 -4.167,2.083 -6.25,3.125c1.844,37.29 27.258,59.289 62.5,62.5l-0,-9.375c-13.293,-28.726 -26.226,-43.963 -56.25,-56.25Z"/><path d="M750,3122.3c160.993,-1.373 443.652,280.124 503.125,396.875c23.032,45.216 73.572,122.26 65.625,181.25c-2.084,-2.083 -4.167,-4.167 -6.25,-6.25c-84.175,-34.541 -142.162,-123.955 -209.375,-178.125c-118.156,-95.227 -225.541,-183.668 -406.25,-218.75c-1.042,-2.083 -2.084,-4.167 -3.125,-6.25c1.041,-1.042 2.083,-2.083 3.125,-3.125c186.465,-3.287 313.927,89.003 418.75,171.875c32.501,25.695 58.899,68.671 100,84.375l-0,-3.125c-80.129,-144.141 -345.345,-415.523 -584.375,-353.125c4.166,-6.25 8.334,-12.501 12.5,-18.75c35.413,-15.623 70.837,-31.252 106.25,-46.875Z"/><path d="M6012.5,3206.67c21.869,52.684 -56.733,267.476 -90.625,278.125c17.706,-47.912 35.418,-95.838 53.125,-143.75c13.156,-48.926 11.179,-100.208 37.5,-134.375Z"/><path d="M4546.88,3262.92c5.207,1.042 10.417,2.083 15.625,3.125l-6.25,0c-69.558,63.297 -309.535,67.237 -425,96.875c-87.879,22.556 -159.835,73.827 -231.25,115.625c-113.099,66.192 -242.414,104.094 -390.625,134.375c-46.815,9.564 -197.683,41.383 -246.875,21.875c202.376,-23.952 375.868,-83.223 534.375,-153.125c99.234,-43.764 185.713,-114.308 293.75,-146.875c143.89,-43.376 336.486,-6.019 456.25,-71.875Z"/><path d="M8209.38,3294.17c56.158,-0.89 103.368,3.056 146.875,12.5l-0,3.125c-156.099,-7.827 -293.89,13.2 -415.625,56.25c-40.621,18.748 -81.255,37.502 -121.875,56.25c50.819,-64.198 183.557,-91.716 275,-112.5c38.538,-5.208 77.087,-10.418 115.625,-15.625Z"/><path d="M5925,3316.05c5.207,1.042 10.417,2.083 15.625,3.125c-9.374,57.285 -18.752,114.589 -28.125,171.875c-25.626,56.216 -198.608,128.748 -268.75,150c-38.155,11.559 -102.444,22.479 -128.125,-6.25c1.041,-2.083 2.083,-4.167 3.125,-6.25c26.221,2.624 66.264,5.206 84.375,-9.375c-9.312,-6.779 -8.382,-2.076 -6.25,-12.5c19.972,-40.812 71.618,-60.658 106.25,-87.5c73.95,-67.702 147.924,-135.424 221.875,-203.125Z"/><path d="M684.375,3397.3c298.65,-3.211 425.25,156.834 534.375,343.75c33.852,57.984 74.644,122.842 87.5,200l-3.125,0c-5.208,-4.166 -10.418,-8.334 -15.625,-12.5c-27.081,-33.33 -54.169,-66.67 -81.25,-100c-100.549,-130.958 -215.754,-233.81 -412.5,-268.75c-86.132,-15.296 -137.299,25.398 -196.875,34.375c2.083,-3.125 4.166,-6.251 6.25,-9.375c38.538,-14.582 77.087,-29.169 115.625,-43.75c147.372,-30.633 261.759,46.507 343.75,96.875c-23.934,-109.163 -274.46,-220.702 -431.25,-181.25c-211.536,53.227 -366.373,184.848 -515.625,303.125c-38.538,39.579 -77.087,79.17 -115.625,118.75c15.34,-42.016 52.464,-70.825 78.125,-103.125c110.307,-138.853 246.375,-258.495 421.875,-331.25c56.741,-23.523 121.83,-21.801 184.375,-46.875Z"/><path d="M7231.25,3903.55c123.285,-1.317 156.488,91.129 265.625,96.875c12.978,-7.63 17.606,-7.19 18.75,-28.125c-73.665,-113.36 -315.135,-256.201 -437.5,-331.25c-48.044,-29.467 -130.342,-47.889 -165.625,-90.625c5.207,-23.956 10.417,-47.919 15.625,-71.875c80.388,14.661 162.728,89.695 225,131.25c117.834,78.632 227.988,157.844 337.5,243.75c41.662,38.538 83.337,77.087 125,115.625c45.709,36.768 124.072,96.753 150,150c-68.387,-31.075 -139.444,-54.207 -228.125,-68.75c-56.245,3.124 -112.506,6.25 -168.75,9.375c-32.637,-57.558 -131.687,-79.885 -137.5,-156.25Z"/><path d="M6112.5,3512.92c-8.711,52.683 -200.813,188.844 -253.125,228.125c-197.451,148.261 -559.954,367.581 -928.125,275c-122.157,-30.718 -229.424,-77.578 -325,-134.375c-66.614,-39.586 -172.102,-79.008 -212.5,-143.75c3.124,2.083 6.25,4.167 9.375,6.25c40.62,27.081 81.254,54.169 121.875,81.25c104.09,62.547 220.522,109.998 353.125,143.75c476.331,121.241 1035.12,-216.488 1234.38,-456.25Z"/><path d="M6109.38,3659.8l9.375,0c3.124,2.083 6.25,4.167 9.375,6.25c10.654,128.98 2.236,256.455 -31.25,362.5c-96.903,306.874 -537.034,720.495 -859.375,796.875c-140.062,33.188 -256.103,-40.124 -343.75,-75l-0,-3.125c75.351,7.953 165.297,51.792 265.625,28.125c162.897,-38.428 547.832,-313.803 631.25,-434.375c-29.164,20.831 -58.337,41.669 -87.5,62.5c-66.901,44.547 -276.972,177.243 -356.25,187.5c2.083,-2.083 4.166,-4.167 6.25,-6.25c41.107,-97.9 98.458,-219.816 162.5,-300c51.036,-43.746 102.088,-87.504 153.125,-131.25c-51.037,29.163 -102.089,58.336 -153.125,87.5c-120.174,63.898 -340.035,107.422 -512.5,59.375l-0,-3.125c1.041,-1.042 2.083,-2.083 3.125,-3.125c107.757,2.675 321.47,-23.919 368.75,-75c-11.458,-15.623 -22.918,-31.252 -34.375,-46.875c15.102,-19.558 205.221,-85.678 243.75,-109.375c189.146,-116.338 349.655,-269.834 525,-403.125Z"/><path d="M725,3684.8c260.671,-1.859 359.322,186.311 456.25,350c30,50.662 73.931,108.622 87.5,171.875l-3.125,0c-108.54,-57.049 -205.18,-202.962 -321.875,-231.25c18.911,39.83 66.202,120.71 59.375,165.625c-3.125,-1.042 -6.251,-2.083 -9.375,-3.125c-54.803,-92.561 -115.421,-209.531 -190.625,-284.375l-3.125,0l-0,3.125c32.288,94.782 64.586,189.593 96.875,284.375l-12.5,0c-73.346,-44.819 -172.098,-346.59 -212.5,-446.875c1.041,-2.083 2.083,-4.167 3.125,-6.25c16.665,-1.042 33.334,-2.083 50,-3.125Z"/><path d="M5137.5,3697.3c138.528,32.288 277.097,64.586 415.625,96.875c-21.842,66.045 -278.231,136.376 -390.625,106.25c1.197,-79.313 -13.894,-139.127 -25,-203.125Z"/><path d="M4871.88,3725.42c14.581,2.083 29.168,4.167 43.75,6.25c10.962,14.875 19.558,21.994 21.875,46.875c-3.125,4.166 -6.251,8.334 -9.375,12.5c-94.156,37.661 -265.553,21.527 -337.5,-31.25c80.611,5.102 216.077,-6.711 281.25,-34.375Z"/><path d="M6909.38,3969.17c162.775,-3.442 274.481,33.363 371.875,93.75c-1.042,5.207 -2.084,10.417 -3.125,15.625c-16.666,8.332 -33.335,16.667 -50,25c-105.046,-33.135 -218.713,-83.308 -334.375,-115.625c-1.042,-5.208 -2.084,-10.418 -3.125,-15.625c6.249,-1.042 12.5,-2.083 18.75,-3.125Z"/><path d="M7509.38,4134.8c102.885,-2.87 283.667,31.151 303.125,103.125c-290.17,-48.361 -489.31,-17.677 -715.625,81.25c-96.866,48.953 -193.76,97.921 -290.625,146.875c1.041,-3.125 2.083,-6.251 3.125,-9.375c30.205,-24.998 60.419,-50.003 90.625,-75c70.479,-51.927 151.656,-107.444 234.375,-143.75c75.635,-33.198 159.373,-62.517 243.75,-84.375c43.745,-6.25 87.504,-12.501 131.25,-18.75Z"/><path d="M78.125,4187.92c7.291,62.493 14.584,125.006 21.875,187.5c26.379,120.874 66.071,241.517 121.875,337.5c74.585,128.288 163.527,245.808 265.625,346.875c51.036,45.828 102.088,91.671 153.125,137.5c-77.715,-23.781 -146.049,-114.501 -206.25,-162.5c-209.335,-166.906 -383.389,-459.788 -356.25,-846.875Z"/><path d="M962.5,4187.92c230.57,-3.967 486.238,97.203 518.75,278.125l-3.125,0c-2.084,-1.042 -4.167,-2.083 -6.25,-3.125c-27.493,-88.602 -122.972,-139.036 -206.25,-171.875c-32.17,-12.685 -72.159,-14.484 -96.875,-34.375l-0,-3.125c75.517,6.747 148.319,41.346 200,75c-94.979,-121.446 -401.223,-146.907 -578.125,-84.375c-74.745,26.421 -128.922,84.181 -196.875,109.375c5.207,-7.291 10.417,-14.584 15.625,-21.875c58.887,-25.756 106.046,-76.954 171.875,-103.125c53.058,-21.095 122.353,-16.013 181.25,-40.625Z"/><path d="M7775,4284.8c202.233,-3.154 397.855,129.91 446.875,268.75c-2.084,-1.042 -4.167,-2.083 -6.25,-3.125c-78.566,-173.788 -355.022,-268.058 -575,-171.875c-219.908,96.152 -353.574,284.374 -528.125,425c-110.434,88.97 -212.72,175.272 -334.375,256.25c-30.206,22.914 -60.42,45.835 -90.625,68.75c6.249,-20.831 12.5,-41.669 18.75,-62.5c-1.042,-1.042 -2.084,-2.083 -3.125,-3.125c-5.208,1.042 -10.418,2.083 -15.625,3.125c-47.272,22.321 -54.395,95.175 -103.125,118.75c-28.022,13.556 -61.361,-8.017 -81.25,28.125c-6.25,29.163 -12.501,58.336 -18.75,87.5c-2.084,-1.042 -4.167,-2.083 -6.25,-3.125c-1.042,-14.582 -2.084,-29.169 -3.125,-43.75c-186.751,94.872 -368.396,196.095 -559.375,293.75c-34.753,17.77 -161.519,96.221 -193.75,90.625c53.12,-27.081 106.255,-54.169 159.375,-81.25c137.742,-70.905 273.823,-138.246 403.125,-215.625c62.493,-36.455 125.006,-72.921 187.5,-109.375c8.997,-24.396 7.159,-44.987 18.75,-62.5c75.233,-14.836 118.865,-31.21 150,-90.625c9.373,-16.666 18.751,-33.335 28.125,-50c21.641,-12.64 44.348,3.415 68.75,-3.125c17.706,-10.416 35.418,-20.835 53.125,-31.25c249.807,-176.659 417.484,-441.248 681.25,-603.125c51.814,-31.799 113.185,-62.441 175,-81.25c42.704,-8.333 85.42,-16.668 128.125,-25Z"/><path d="M1043.75,4359.8c100.597,-0.602 193.996,5.067 256.25,43.75c69.523,43.2 168.223,274.204 218.75,356.25c19.352,31.425 49.035,51.046 71.875,78.125c-54.013,2.39 -146.963,41.221 -178.125,31.25c-70.827,-66.66 -141.674,-133.34 -212.5,-200c14.61,39.571 127.473,170.952 103.125,209.375c-40.594,-26.697 -65.544,-79.204 -93.75,-118.75c-87.271,-122.359 -165.81,-254.518 -240.625,-390.625l-0,-3.125c24.997,-2.083 50.002,-4.167 75,-6.25Z"/><path d="M1768.75,4528.55c141.675,-1.282 186.134,68.328 287.5,103.125c95.792,32.883 194.928,-9.009 271.875,-25l0,3.125c-1.042,2.083 -2.084,4.167 -3.125,6.25c-50.795,22.551 -94.817,57.841 -156.25,71.875c-159.155,36.356 -218.25,-96.023 -328.125,-121.875c-80.083,-18.842 -282.473,179.53 -312.5,37.5l59.375,0c65.767,-19.307 124.217,-42.873 181.25,-75Z"/><path d="M7943.75,4628.55c129.007,10.083 318.807,94.539 371.875,171.875c12.498,27.081 25.001,54.169 37.5,81.25c31.246,36.454 62.503,72.92 93.75,109.375l-3.125,0c-97.162,-60.132 -189.766,-72.172 -315.625,-109.375c1.041,2.083 2.083,4.167 3.125,6.25c139.874,42.323 240.383,147.987 365.625,200c97.869,40.645 174.633,50.037 212.5,150c-110.658,-76.496 -252.926,-143.327 -440.625,-134.375l-0,3.125c253.796,36.587 615.479,382.559 662.5,621.875c19.218,97.813 -38.708,184.748 -65.625,246.875c-86.23,199.024 -209.792,388.008 -393.75,487.5c20.282,-52.465 96.824,-85.268 131.25,-128.125c85.919,-106.964 196.513,-242.766 215.625,-409.375c-20.831,1.042 -41.669,2.083 -62.5,3.125c-3.125,-2.083 -6.251,-4.167 -9.375,-6.25c3.124,-4.166 6.25,-8.334 9.375,-12.5c33.273,-12.643 77.187,-41.959 90.625,-75c-51.251,17.393 -230.728,105.357 -256.25,103.125l-0,-3.125c30.05,-10.169 280.156,-142.7 293.75,-159.375c-28.787,-202.376 -300.152,-502.91 -490.625,-543.75c2.083,3.124 4.166,6.25 6.25,9.375c99.059,37.006 316.296,253.847 321.875,359.375l-3.125,0c-108.349,-105.472 -228.774,-204.901 -378.125,-268.75c-42.158,-18.023 -195.258,-42.517 -221.875,-62.5c1.041,-2.083 2.083,-4.167 3.125,-6.25l118.75,0l-0,-3.125c-2.084,-3.125 -4.167,-6.251 -6.25,-9.375c-86.757,-26.807 -184.603,-29.592 -296.875,-46.875c-57.286,3.124 -114.59,6.25 -171.875,9.375l6.25,0c74.705,-42.95 263.625,-47.107 378.125,-46.875c40.62,1.042 81.254,2.083 121.875,3.125c-84.501,-19.539 -175.376,-36.425 -284.375,-40.625c1.041,-3.125 2.083,-6.251 3.125,-9.375c65.392,-13.4 161.373,-23.92 209.375,-59.375c-2.084,-1.042 -4.167,-2.083 -6.25,-3.125c-39.106,-37.849 -129.272,-39.243 -193.75,-50c-256.228,-42.748 -441.045,58.185 -571.875,162.5c-47.294,37.708 -85.634,92.621 -140.625,121.875c13.666,-58.059 69.784,-96.925 103.125,-137.5c149.702,-182.188 380.11,-218.7 703.125,-187.5c-1.042,-2.083 -2.084,-4.167 -3.125,-6.25c-122.695,-25.755 -468.257,-97.018 -528.125,-165.625c2.083,-3.125 4.166,-6.251 6.25,-9.375c166.317,-43.94 375.128,6.526 515.625,40.625c-57.561,-48.309 -284.164,-88.653 -387.5,-90.625l-0,-3.125c4.166,-5.208 8.334,-10.418 12.5,-15.625c40.62,-21.873 81.254,-43.752 121.875,-65.625c37.496,-7.291 75.003,-14.584 112.5,-21.875Z"/><path d="M2740.62,4634.8c30.818,15.244 115.089,205.879 140.625,246.875c85.921,137.94 185.603,262.658 284.375,387.5c49.995,54.161 100.005,108.338 150,162.5l-3.125,0c-42.705,-31.247 -85.421,-62.504 -128.125,-93.75c-225.156,-165.873 -361.202,-393.507 -443.75,-703.125Z"/><path d="M1806.25,4637.92c101.087,10.855 164.374,104.208 293.75,125c79.791,12.823 141.291,-30.201 193.75,-50c84.617,-31.937 281.735,-51.083 356.25,3.125c92.061,66.973 106.606,380.834 146.875,509.375c72.997,233.01 182.175,441.21 315.625,615.625c55.488,72.521 207.529,197.785 234.375,275c-37.023,9.521 -69.05,21.95 -84.375,53.125c-4.166,10.415 -8.334,20.834 -12.5,31.25c-31.499,24.342 -78.197,22.999 -109.375,53.125c-70.54,68.16 -85.575,167.047 -118.75,275l-3.125,0c-54.162,-49.995 -108.339,-100.005 -162.5,-150c19.485,-86.413 99.492,-150.967 121.875,-231.25c16.388,-58.782 -102.969,-312.693 -115.625,-387.5l-15.625,0c-48.895,15.087 -207.942,59.377 -250,50c-32.224,-108.208 -127.312,-313.333 -206.25,-375c-97.543,-76.2 -232.454,-109.269 -331.25,-181.25c-71.371,-52 -223.247,-190.03 -268.75,-262.5c-20.737,-33.026 -11.65,-77.841 -37.5,-109.375c-24.733,-30.17 -64.767,-32.43 -100,-53.125c-32.766,-19.245 -60.654,-65.087 -81.25,-96.875l-0,-3.125c104.44,2.291 167.135,-50.711 234.375,-90.625Z"/><path d="M7415.62,4769.17l9.375,0l-0,6.25c-252.452,43.498 -467.955,284.462 -503.125,546.875l3.125,0l-0,-6.25c57.641,-77.888 90.555,-200.923 171.875,-253.125c-21.236,51.754 -62.075,89.636 -90.625,134.375c-63.849,100.05 -138.89,281.299 -87.5,443.75c-8.433,-4.999 -4.305,-1.061 -9.375,-9.375c-89.807,-147.785 -26.614,-396.831 25,-525c-85.895,55.024 -177.706,142.191 -218.75,240.625c-10.416,38.538 -20.835,77.087 -31.25,115.625l-3.125,0c-1.042,-2.083 -2.084,-4.167 -3.125,-6.25c7.624,-59.991 16.841,-117.703 37.5,-165.625c72.255,-167.611 318.531,-380.339 487.5,-453.125c70.826,-22.915 141.673,-45.836 212.5,-68.75Z"/><path d="M1606.25,4884.8c36.763,-2.264 78.538,-1.851 87.5,25c-189.182,-11.835 -216.572,74.043 -331.25,125c31.535,-56.746 108.978,-110.013 171.875,-134.375c23.956,-5.208 47.919,-10.418 71.875,-15.625Z"/><path d="M1490.62,4900.42l9.375,0l-0,3.125c-79.081,24.819 -156.862,69.183 -206.25,125c-20.883,23.6 -36.207,57.203 -65.625,71.875l-0,-3.125c64.287,-120.515 142.641,-134.157 262.5,-196.875Z"/><path d="M1668.75,4978.55c41.679,4.147 277.464,248.805 309.375,290.625l-0,3.125c-57.286,-6.25 -114.59,-12.501 -171.875,-18.75c-27.949,-11.988 -209.241,-175.875 -225,-203.125c11.514,-41.52 54.39,-51.626 87.5,-71.875Z"/><path d="M5740.62,5041.05c68.114,-1.875 134.496,1.447 175,28.125l-0,3.125l-3.125,0c-136.398,-53.718 -287.72,20.548 -387.5,62.5c-220.281,92.616 -446.288,164.514 -709.375,215.625c-176.041,34.2 -426.964,16.972 -512.5,-81.25l-0,-3.125c56.853,13.033 107.342,40.935 175,53.125c105.784,19.059 233.92,2.77 325,-15.625c266.866,-53.901 490.546,-121.006 715.625,-209.375c48.953,-14.582 97.921,-29.169 146.875,-43.75c24.997,-3.125 50.002,-6.251 75,-9.375Z"/><path d="M5175,5047.3l12.5,0l-0,3.125c-4.166,-1.042 -8.334,-2.083 -12.5,-3.125Z"/><path d="M5165.62,5050.42l9.375,0l-0,3.125c-168.111,42.068 -328.928,91.882 -518.75,125c-57.123,9.966 -173.65,6.556 -203.125,-18.75c192.732,21.698 378.885,-24.132 534.375,-65.625c59.369,-14.582 118.755,-29.169 178.125,-43.75Z"/><path d="M381.25,5078.55c42.704,32.288 85.42,64.586 128.125,96.875c76.034,49.995 152.09,100.005 228.125,150c68.742,63.535 137.507,127.089 206.25,190.625c53.12,51.036 106.255,102.088 159.375,153.125c30.176,60.185 12.524,146.167 46.875,203.125c37.532,62.234 100.317,121.172 156.25,165.625c27.081,21.873 54.169,43.752 81.25,65.625c27.884,39.123 22.12,114.725 53.125,153.125c43.345,53.684 257.773,90.033 300,150c14.975,24.32 5.602,73.756 25,93.75c25.689,26.479 214.503,93.194 262.5,106.25c1.041,38.538 2.083,77.087 3.125,115.625c12.824,27.213 148.107,99.14 181.25,115.625c117.696,-48.954 235.428,-97.922 353.125,-146.875c71.867,73.95 143.757,147.924 215.625,221.875c-1.042,2.083 -2.084,4.167 -3.125,6.25c-67.934,20.528 -129.939,68.85 -187.5,103.125c-187.924,111.896 -355.975,228.299 -521.875,359.375c-65.619,63.535 -131.257,127.089 -196.875,190.625c-51.037,27.081 -102.089,54.169 -153.125,81.25c-93.71,57.233 -165.022,137.427 -228.125,225c-4.166,-3.125 -8.334,-6.251 -12.5,-9.375c-61.452,-81.242 -122.923,-162.508 -184.375,-243.75c-107.204,-150.878 -213.065,-309.697 -303.125,-475c-315.777,-579.596 -553.931,-1231.16 -609.375,-2071.88Z"/><path d="M7234.38,5078.55l6.25,0c-20.831,23.956 -41.669,47.919 -62.5,71.875c-42.328,54.938 -84.513,116.292 -112.5,184.375c-22.26,54.151 -33.093,116.544 -43.75,181.25c-1.042,26.038 -2.084,52.086 -3.125,78.125c-2.084,-1.042 -4.167,-2.083 -6.25,-3.125c-37.374,-246.624 121.188,-381.669 221.875,-512.5Z"/><path d="M734.375,5103.55c37.99,19.865 61.983,84.924 87.5,118.75c80.55,106.777 218.645,193.585 259.375,334.375c-35.125,-12.234 -68.346,-66.095 -90.625,-93.75c-88.316,-109.624 -202.897,-215.906 -256.25,-359.375Z"/><path d="M2853.12,5103.55c24.997,34.371 50.002,68.753 75,103.125c32.288,32.288 64.586,64.586 96.875,96.875c31.246,58.328 62.503,116.672 93.75,175c70.826,106.239 141.673,212.51 212.5,318.75c88.532,104.156 177.092,208.344 265.625,312.5c57.285,56.244 114.589,112.505 171.875,168.75l-12.5,0c-68.731,-57.986 -160.58,-92.728 -231.25,-146.875c-218.648,-167.531 -414.774,-400.606 -534.375,-665.625c-46.757,-103.605 -129.106,-231.057 -137.5,-362.5Z"/><path d="M5993.75,5216.05c7.291,1.042 14.584,2.083 21.875,3.125l-0,3.125c-116.814,11.128 -194.023,98.307 -271.875,153.125c-134.296,94.56 -272.053,172.79 -428.125,246.875c-77.379,36.73 -218.253,96.278 -334.375,65.625l-0,-3.125c1.041,-1.042 2.083,-2.083 3.125,-3.125c143.707,10.468 264.688,-61.874 362.5,-112.5c179.525,-92.922 335.624,-200.539 506.25,-300c43.069,-25.106 92.102,-30.266 140.625,-53.125Z"/><path d="M1684.38,5284.8c216.362,-3.378 348.94,161.321 431.25,296.875c24.741,40.746 82.373,114.324 68.75,184.375c-14.909,76.655 -261.131,416.326 -318.75,453.125c-59.483,37.988 -121.256,-10.448 -159.375,-40.625c-72.328,-57.259 -286.919,-304.391 -318.75,-390.625c40.62,48.953 81.254,97.921 121.875,146.875c53.641,67.106 122.514,122.072 184.375,181.25c28.181,26.959 92.861,105.774 153.125,65.625c40.578,-27.035 59.981,-81.336 87.5,-121.875c46.814,-68.965 170.975,-184.501 181.25,-275c9.129,-80.407 -65.978,-162.829 -100,-209.375c-53.812,-73.621 -225.532,-294.1 -368.75,-259.375c-34.372,16.665 -68.754,33.334 -103.125,50c25.898,-44.509 93.926,-56.458 140.625,-81.25Z"/><path d="M7896.88,5306.67c389.121,1.494 697.321,656.319 503.125,1031.25c-102.972,198.805 -309.269,354.636 -525,440.625c-155.193,49.995 -310.432,100.005 -465.625,150c-205.531,74.235 -393.81,171.052 -578.125,262.5l-0,-9.375c55.202,-37.497 110.422,-75.004 165.625,-112.5c93.671,-58.869 197.89,-111.406 303.125,-156.25c413.818,-176.344 826.355,-215.007 1056.25,-584.375c69.57,-111.778 72.623,-294.915 31.25,-440.625c-72.645,-255.841 -206.75,-534.394 -493.75,-571.875c1.041,-3.125 2.083,-6.251 3.125,-9.375Z"/><path d="M7481.25,5309.8c47.344,-1.372 131.182,-6.654 159.375,15.625c-156.191,-2.258 -289.486,32.021 -381.25,96.875c-50.876,35.955 -99.125,118.417 -162.5,134.375c23.917,-117.236 159.267,-194.539 268.75,-228.125c38.538,-6.25 77.087,-12.501 115.625,-18.75Z"/><path d="M2309.38,5444.17c91.416,46.942 203.008,267.423 228.125,381.25c-56.414,-10.818 -228.177,-315.697 -228.125,-381.25Z"/><path d="M7331.25,5550.42c42.704,2.083 85.42,4.167 128.125,6.25l-0,3.125c-176.993,4.182 -330.33,94.344 -390.625,218.75c-27.081,69.785 -54.169,139.59 -81.25,209.375c-56.53,98.25 -126.23,172.51 -193.75,256.25c-31.938,39.61 -137.676,143.06 -190.625,153.125c9.373,-10.416 18.751,-20.835 28.125,-31.25c104.12,-57.298 273.266,-329.438 321.875,-453.125c30.793,-78.355 43.311,-164.197 87.5,-228.125c45.65,-66.044 125.686,-103.074 215.625,-125c24.997,-3.125 50.002,-6.251 75,-9.375Z"/><path d="M1156.25,5587.92c23.032,44.29 16.246,115.227 34.375,156.25c35.071,79.361 126.802,138.641 137.5,234.375c-81.72,-60.99 -219.395,-216.865 -171.875,-390.625Z"/><path d="M5715.62,5641.05l6.25,0l-6.25,0Z"/><path d="M5703.12,5647.3l6.25,0l-6.25,0Z"/><path d="M4506.25,5659.8c95.363,17.173 181.387,149.469 275,190.625c159.237,70.006 385.857,79.148 578.125,106.25l-0,3.125c-177.846,-1.504 -454.159,-14.504 -587.5,-71.875c-94.47,-40.646 -202.611,-152.581 -265.625,-228.125Z"/><path d="M2796.88,5812.92c28.375,11.524 49.693,75.427 50,103.125c-24.998,4.166 -50.003,8.334 -75,12.5c1.041,-2.083 2.083,-4.167 3.125,-6.25c14.157,-1.658 53.879,-6.299 62.5,-21.875c-11.806,-32.438 -23.759,-61.339 -40.625,-87.5Z"/><path d="M2596.88,5834.8l6.25,0l-6.25,0Z"/><path d="M2571.88,5837.92l15.625,0c-1.042,2.083 -2.084,4.167 -3.125,6.25c-66.66,15.623 -133.34,31.252 -200,46.875c2.083,-1.042 4.166,-2.083 6.25,-3.125c60.41,-16.666 120.839,-33.335 181.25,-50Z"/><path d="M2371.88,5891.05l12.5,0l0,3.125c-4.166,-1.042 -8.334,-2.083 -12.5,-3.125Z"/><path d="M2365.62,5894.17l6.25,0l-6.25,0Z"/><path d="M2353.12,5897.3l12.5,0c-5.208,2.083 -10.418,4.167 -15.625,6.25c1.041,-2.083 2.083,-4.167 3.125,-6.25Z"/><path d="M2765.62,5928.55l6.25,0l-6.25,0Z"/><path d="M2293.75,5934.8c9.457,6.036 5.058,0.638 9.375,12.5l-3.125,0c-2.084,-4.166 -4.167,-8.334 -6.25,-12.5Z"/><path d="M2287.5,5944.17c-2.959,20.831 -44.579,63.025 -65.625,78.125c5.207,-6.25 10.417,-12.501 15.625,-18.75c16.665,-19.79 33.334,-39.586 50,-59.375Z"/><path d="M2303.12,5947.3c2.083,4.166 4.166,8.334 6.25,12.5l-3.125,0c-1.042,-4.166 -2.084,-8.334 -3.125,-12.5Z"/><path d="M2315.62,5966.05c3.124,4.166 6.25,8.334 9.375,12.5c-3.125,-4.166 -6.251,-8.334 -9.375,-12.5Z"/><path d="M2325,5978.55c3.124,4.166 6.25,8.334 9.375,12.5c-3.125,-4.166 -6.251,-8.334 -9.375,-12.5Z"/><path d="M2334.38,5991.05c17.792,13.186 42.95,39.641 50,62.5l-3.125,0c-12.499,-11.458 -25.002,-22.918 -37.5,-34.375c-3.125,-9.374 -6.251,-18.751 -9.375,-28.125Z"/><path d="M2215.62,6022.3l6.25,0c-3.125,2.083 -6.251,4.167 -9.375,6.25c1.041,-2.083 2.083,-4.167 3.125,-6.25Z"/><path d="M2450,6031.67l6.25,0l-6.25,0Z"/><path d="M2406.25,6047.3c0,0 -49.435,77.501 -59.375,96.875c-55.203,107.281 -110.423,214.594 -165.625,321.875c-45.531,-35.857 -113.52,-155.558 -109.375,-215.625c1.041,2.083 2.083,4.167 3.125,6.25c23.11,47.966 65.347,180.469 109.375,196.875c18.391,-108.2 146.819,-310.196 203.125,-400c6.249,-2.083 12.5,-4.167 18.75,-6.25Z"/><path d="M3425,6119.17c32.365,11.659 114.474,139.23 140.625,171.875c72.19,90.116 176.103,170.988 268.75,240.625c33.33,22.914 66.669,45.835 100,68.75l-0,3.125l-3.125,0c-171.13,-71.398 -479.626,-283.5 -506.25,-484.375Z"/><path d="M3353.12,6181.67l12.5,0c71.027,193.439 195.271,357.449 337.5,481.25c67.701,52.078 135.423,104.172 203.125,156.25c-145.847,-50.757 -237.794,-200.068 -362.5,-275l-3.125,0c13.85,76.315 79.493,116.127 103.125,181.25c-104.037,-61.849 -285.703,-376.704 -290.625,-543.75Z"/><path d="M2653.12,6259.8c204.146,182.273 408.353,364.601 612.5,546.875c166.65,145.818 333.35,291.681 500,437.5c334.821,265.432 655.09,550.543 996.875,809.375c494.437,374.435 992.309,740.778 1512.5,1090.62c323.165,217.34 648.252,451.888 990.625,646.875c270.315,153.948 534.746,313.95 806.25,471.875c97.906,47.912 195.843,95.838 293.75,143.75c44.787,18.748 89.587,37.502 134.375,56.25l-6.25,0c-83.655,36.541 -317.026,-66.851 -387.5,-96.875c-333.849,-142.231 -643.995,-306.206 -934.375,-487.5c-786.87,-491.269 -1515.33,-1026.41 -2240.62,-1575c-327.051,-266.64 -654.2,-533.36 -981.25,-800c-64.577,-58.328 -129.173,-116.672 -193.75,-175c-269.765,-237.476 -539.611,-475.024 -809.375,-712.5c-107.281,-98.949 -214.594,-197.927 -321.875,-296.875c-10.265,-3.252 -93.031,130.156 -96.875,168.75c76.767,143.187 235.027,229.961 331.25,356.25c-46.754,-22.309 -83.205,-76.975 -118.75,-112.5c-80.131,-80.086 -178.4,-156.587 -246.875,-246.875c40.501,-82.248 94.247,-166.128 159.375,-225Z"/><path d="M2062.5,6284.8c1.041,2.083 2.083,4.167 3.125,6.25c-1.042,-2.083 -2.084,-4.167 -3.125,-6.25Z"/><path d="M2059.38,6291.05c-1.042,28.122 -2.084,56.252 -3.125,84.375c0.099,76.041 -0.349,260.146 28.125,312.5c39.957,11.396 126.441,42.934 143.75,78.125l-3.125,0c-51.037,-28.123 -102.089,-56.253 -153.125,-84.375c-3.801,-103.702 -50.501,-296.488 -12.5,-390.625Z"/><path d="M5440.62,6347.3c102.604,-1.76 197.352,53.285 265.625,93.75c199.804,118.424 361.144,246.244 481.25,443.75c25.365,41.713 127.491,212.687 100,281.25c-5.354,12.127 -9.879,16.393 -21.875,21.875c-124.259,41.031 -212.812,-141.138 -256.25,-212.5c-154.763,-254.25 -356.181,-462.784 -631.25,-596.875l-0,-6.25c1.041,-2.083 2.083,-4.167 3.125,-6.25c19.789,-6.25 39.585,-12.501 59.375,-18.75Z"/><path d="M5465.62,6381.67c69.785,47.912 139.59,95.838 209.375,143.75c136.858,104.828 269.46,255.459 362.5,403.125c44.128,70.037 85.075,213.712 187.5,221.875c5.207,-3.125 10.417,-6.251 15.625,-9.375c1.053,-115.746 -55.191,-192.815 -100,-265.625c-117.551,-191.008 -266.747,-308.202 -471.875,-412.5c-60.069,-30.543 -128.426,-67.69 -203.125,-81.25Z"/><path d="M2665.62,6447.3c75.151,26.071 134.306,120.847 193.75,168.75c143.736,131.236 287.514,262.513 431.25,393.75c117.696,107.281 235.428,214.594 353.125,321.875c348.801,280.475 669.62,597.087 1021.88,875c323.949,255.58 652.061,512.808 990.625,753.125c312.959,222.142 636.246,425.566 959.375,637.5c156.234,105.197 312.515,210.427 468.75,315.625c234.191,144.047 481.573,286.683 743.75,400c139.569,59.369 279.18,118.755 418.75,178.125l-0,3.125c-182.124,2.731 -411.214,16.435 -562.5,-31.25c-41.663,-27.081 -83.338,-54.169 -125,-81.25c-111.673,-71.813 -218.242,-140.063 -321.875,-215.625c-132.278,-73.951 -264.597,-147.925 -396.875,-221.875c-119.78,-67.702 -239.596,-135.424 -359.375,-203.125c-313.207,-197.046 -591.863,-434.476 -881.25,-653.125c-284.347,-209.354 -568.779,-418.771 -853.125,-628.125c-214.562,-177.066 -429.189,-354.185 -643.75,-531.25c-276.925,-215.857 -544.577,-449.054 -800,-687.5c-71.759,-66.99 -145.866,-142.367 -221.875,-203.125c-32.79,-26.211 -84.341,-54.967 -103.125,-93.75c220.811,194.772 441.689,389.603 662.5,584.375c455.128,359.262 895.44,733.35 1365.62,1078.12c132.278,97.907 264.597,195.843 396.875,293.75c-64.668,-82.226 -229.934,-183.253 -318.75,-250c-236.435,-185.399 -472.941,-370.852 -709.375,-556.25c-151.796,-113.173 -332.5,-234.986 -440.625,-390.625c63.132,23.585 220.152,189.978 265.625,184.375l-6.25,0c-116.656,-108.323 -233.345,-216.678 -350,-325c-261.433,-240.601 -522.943,-481.274 -784.375,-721.875c-101.032,-92.699 -202.094,-185.426 -303.125,-278.125c-33.525,-33.281 -88.379,-51.694 -90.625,-115.625Z"/><path d="M4900,6481.67l6.25,0c-36.455,38.538 -72.921,77.087 -109.375,115.625c-59.683,73.866 -130.185,143.214 -181.25,225c-22.58,36.163 -10.972,91.327 -21.875,134.375c-3.125,-2.083 -6.251,-4.167 -9.375,-6.25c-49.1,-212.858 222.409,-348.016 315.625,-468.75Z"/><path d="M6390.62,6572.3c148.375,-1.153 307.33,256.435 321.875,393.75l-3.125,0l-0,-6.25c-10.416,-26.039 -20.835,-52.087 -31.25,-78.125c-27.578,-63.172 -71.064,-126.614 -112.5,-178.125c-29.171,-36.263 -78.938,-78.73 -121.875,-100c-21.873,-7.291 -43.752,-14.584 -65.625,-21.875c4.166,-3.125 8.334,-6.251 12.5,-9.375Z"/><path d="M5131.25,6622.3l6.25,0c-5.454,3.053 -0.688,2.85 -6.25,0Z"/><path d="M5125,6628.55l6.25,0c-69.416,101.192 -172.086,177.749 -237.5,284.375c-23.569,38.417 -24.66,94.907 -46.875,137.5c-2.084,-1.042 -4.167,-2.083 -6.25,-3.125c-1.959,-217.267 187.803,-294.089 284.375,-418.75Z"/><path d="M9409.38,6631.67c7.291,1.042 14.584,2.083 21.875,3.125c-8.569,61.146 -301.633,215.811 -396.875,171.875l-0,-9.375c75.99,-52.473 173.765,-91.703 265.625,-128.125c36.454,-12.499 72.92,-25.001 109.375,-37.5Z"/><path d="M6206.25,6650.42c138.397,5.216 275.188,232.668 296.875,362.5c-2.084,-1.042 -4.167,-2.083 -6.25,-3.125c-22.55,-110.819 -110.526,-229.793 -187.5,-290.625c-17.204,-13.596 -106.732,-54.011 -112.5,-65.625c3.124,-1.042 6.25,-2.083 9.375,-3.125Z"/><path d="M6568.75,6778.55c68.17,63.767 93.539,174.599 112.5,287.5c9.529,56.745 1.302,151.02 -37.5,162.5l-0,-18.75c29.797,-99.88 16.998,-254.837 -21.875,-334.375c-15.65,-32.021 -44.453,-59.487 -53.125,-96.875Z"/><path d="M5434.38,6828.55l15.625,0c-1.042,2.083 -2.084,4.167 -3.125,6.25c-85.057,34.867 -158.055,138.995 -206.25,212.5c-16.666,27.081 -33.335,54.169 -50,81.25l-0,-9.375c55.052,-126.614 141.198,-211.377 243.75,-290.625Z"/><path d="M6353.12,6837.92c64.063,49.808 181.625,320.627 109.375,450c-5.208,-1.042 -10.418,-2.083 -15.625,-3.125c10.225,-121.103 7.965,-243.851 -31.25,-337.5c-20.831,-36.455 -41.669,-72.921 -62.5,-109.375Z"/><path d="M2859.38,6844.17c6.007,4.35 1.87,0.317 6.25,6.25c-2.084,-2.083 -4.167,-4.167 -6.25,-6.25Z"/><path d="M8578.12,6900.42c31.648,-1.233 79.053,-4.659 96.875,9.375c-1.042,2.083 -2.084,4.167 -3.125,6.25c-127.857,42.418 -311.246,119.135 -481.25,65.625c18.885,-64.747 310.374,-50.915 387.5,-81.25Z"/><path d="M5728.12,7031.67c2.083,2.083 4.166,4.167 6.25,6.25c-64.034,46.201 -120.708,110.136 -162.5,178.125c-18.748,33.33 -37.502,66.67 -56.25,100l-0,-9.375c53.081,-119.99 116.833,-198.814 212.5,-275Z"/><path d="M7106.25,7125.42c8.682,7.053 7.536,3.464 9.375,18.75c-77.209,220.995 -342.037,347.772 -578.125,409.375l-0,-3.125c29.163,-13.541 58.336,-27.085 87.5,-40.625c81.255,-46.839 186.962,-100.13 240.625,-175l-0,-3.125c-58.632,12.027 -222.765,85.907 -281.25,65.625c226.366,-23.303 361.498,-176.728 521.875,-271.875Z"/><path d="M9046.88,7141.05l18.75,0c-67.435,151.384 -215.599,318.764 -312.5,450c-198.332,268.605 -439.011,532.099 -706.25,731.25c-5.208,-2.083 -10.418,-4.167 -15.625,-6.25c-17.707,-20.831 -35.419,-41.669 -53.125,-62.5c-53.844,-68.457 -120.371,-141.763 -156.25,-225c-20.575,-47.732 -5.363,-155.629 -46.875,-184.375c-50.861,-35.22 -127.883,-9.114 -196.875,-31.25c-30.635,-9.83 -53.206,-60.355 -71.875,-84.375c-48.203,-62.018 -220.567,-236.033 -237.5,-300c137.189,13.375 331.842,-15.124 462.5,-37.5c294.364,-50.414 583.499,-65.468 853.125,-131.25c125.499,-30.619 247.314,-52.164 362.5,-87.5c33.33,-10.416 66.669,-20.835 100,-31.25Z"/><path d="M2300,7316.05l9.375,0c-1.042,3.124 -2.084,6.25 -3.125,9.375c-89.639,52.973 -167.747,152.117 -240.625,225c-143.302,143.308 -284.609,284.631 -403.125,453.125c-37.701,53.599 -88.749,105.213 -112.5,171.875l-6.25,0c15.938,-92.248 94.994,-187.778 140.625,-259.375c110.316,-173.093 238.998,-328.158 400,-450c71.867,-49.995 143.757,-100.005 215.625,-150Z"/><path d="M7043.75,7319.17c47.893,18.699 85.149,83.627 115.625,121.875c76.657,96.206 162.292,185.118 237.5,284.375c16.36,21.591 43.903,37.5 53.125,65.625l-18.75,0c-107.501,-29.259 -265.794,-224.794 -331.25,-309.375c-27.055,-34.96 -80.543,-70.436 -87.5,-121.875c10.415,-13.541 20.834,-27.085 31.25,-40.625Z"/><path d="M6390.62,7766.05c339.875,-3.626 650.589,24.58 950,75c108.395,18.253 303.275,10.629 381.25,59.375c37.856,301.219 306.922,534.06 521.875,662.5c104.156,56.244 208.344,112.505 312.5,168.75c82.814,58.978 156.107,145.253 218.75,225c46.461,59.149 150.546,147.656 171.875,221.875l-3.125,0c-30.206,-37.497 -60.42,-75.004 -90.625,-112.5c-90.501,-107.647 -203.432,-224.459 -318.75,-306.25c-74.386,-52.759 -167.938,-83.063 -256.25,-121.875c-140.662,-61.819 -278.242,-153.527 -387.5,-250c-77.748,-68.65 -153.127,-151.109 -209.375,-240.625c-20.831,-42.705 -41.669,-85.421 -62.5,-128.125c-64.577,-18.748 -129.173,-37.502 -193.75,-56.25c-223.945,-65.36 -484.055,-81.563 -725,-131.25c-101.681,-20.969 -225.467,-16.919 -312.5,-59.375c1.041,-2.083 2.083,-4.167 3.125,-6.25Z"/><path d="M1556.25,7894.17l6.25,0c-31.247,57.285 -62.504,114.589 -93.75,171.875c-56.245,114.571 -112.506,229.178 -168.75,343.75c-59.511,136.547 -104.313,281.344 -137.5,443.75c-6.25,78.117 -12.501,156.258 -18.75,234.375c-2.084,-1.042 -4.167,-2.083 -6.25,-3.125c-12.499,-66.66 -25.002,-133.34 -37.5,-200c-4.253,-27.057 9.593,-68.719 -9.375,-81.25c-17.144,47.049 -52.317,79.097 -62.5,134.375c-25.974,140.992 30.418,269.627 50,371.875l-3.125,0c-1.042,-2.083 -2.084,-4.167 -3.125,-6.25c-48.656,-49.758 -133.952,-330.577 -93.75,-428.125c36.454,-56.245 72.92,-112.506 109.375,-168.75c74.052,-176.343 132.16,-334.862 228.125,-484.375c73.799,-114.979 164.223,-217.152 240.625,-328.125Z"/><path d="M8315.62,7950.42c-56.201,1.598 -87.91,31.957 -115.625,62.5c1.041,7.291 2.083,14.584 3.125,21.875c5.207,6.249 10.417,12.5 15.625,18.75c42.822,-5.04 93.162,-59.159 96.875,-103.125Z"/><path d="M6453.12,8019.17l6.25,0l-6.25,0Z"/><path d="M6459.38,8022.3l6.25,0l-6.25,0Z"/><path d="M6465.62,8025.42l6.25,0l-6.25,0Z"/><path d="M6471.88,8028.55c70.826,34.371 141.673,68.753 212.5,103.125c135.403,53.12 270.847,106.255 406.25,159.375c154.151,48.953 308.348,97.921 462.5,146.875c303.538,124.927 583.137,279.491 843.75,443.75c111.687,70.393 208.974,149.017 309.375,228.125c34.371,29.163 68.753,58.336 103.125,87.5l-0,3.125c-45.829,-18.748 -91.672,-37.502 -137.5,-56.25c-114.14,-36.269 -233.807,-57.509 -334.375,-106.25c-58.328,-32.289 -116.673,-64.587 -175,-96.875c49.095,87.408 128.203,188.815 153.125,293.75c-2.084,-1.042 -4.167,-2.083 -6.25,-3.125c-74.562,-188.821 -292.045,-347.531 -450,-459.375c-64.577,-43.746 -129.173,-87.504 -193.75,-131.25c-163.525,-30.205 -327.1,-60.42 -490.625,-90.625c-265.385,-67.3 -505.902,-147.7 -725,-253.125c-102.546,-49.342 -238.221,-105.724 -306.25,-190.625c81.688,32.045 171.951,116.161 262.5,156.25c260.544,115.35 532.42,177.695 853.125,243.75c113.235,23.322 308.121,57.968 428.125,46.875l-0,-3.125c-150.426,-82.5 -323.073,-123.761 -496.875,-190.625c-154.456,-59.421 -306.95,-122.059 -450,-190.625c-75.804,-36.334 -218.336,-82.857 -268.75,-140.625Z"/><path d="M6131.25,8097.3l6.25,0l-6.25,0Z"/><path d="M4321.88,8341.05c1.041,2.083 2.083,4.167 3.125,6.25c-1.042,-2.083 -2.084,-4.167 -3.125,-6.25Z"/><path d="M4325,8347.3c54.012,49.467 84.706,154.598 115.625,225c56.575,128.822 102.893,270.099 137.5,425c8.332,66.66 16.667,133.34 25,200c11.371,54.223 36.753,96.069 50,143.75c19.875,71.542 -11.517,189.38 -34.375,243.75c-2.084,-1.042 -4.167,-2.083 -6.25,-3.125c10.416,-95.158 19.472,-233.776 -34.375,-284.375c-43.995,17.297 -52.685,73.025 -90.625,96.875c11.29,-44.973 40.283,-75.097 50,-128.125c12.344,-67.367 1.28,-152.242 -9.375,-212.5c-32.744,-185.163 -56.855,-340.508 -112.5,-496.875c-30.206,-69.785 -60.42,-139.59 -90.625,-209.375Z"/><path d="M4128.12,8525.42c1.041,2.083 2.083,4.167 3.125,6.25c-1.042,-2.083 -2.084,-4.167 -3.125,-6.25Z"/><path d="M4125,8531.67c1.649,40.035 -87.672,156.263 -112.5,193.75c-105.791,159.728 -320.206,437.319 -509.375,500c2.083,-3.125 4.166,-6.251 6.25,-9.375c49.862,-21.744 90.306,-65.02 131.25,-96.875c194.604,-151.411 363.052,-364.758 484.375,-587.5Z"/><path d="M5087.5,8941.05c74.268,27.374 161.065,140.753 225,190.625c196.896,153.589 368.878,333.081 565.625,487.5c109.49,85.935 212.315,211.762 403.125,212.5c-14.687,-35.714 -199.644,-176.819 -240.625,-209.375c-110.406,-93.741 -220.845,-187.51 -331.25,-281.25c-121.864,-92.699 -243.762,-185.426 -365.625,-278.125c51.115,16.452 88.815,63.673 128.125,93.75c97.906,71.867 195.843,143.757 293.75,215.625c214.561,152.068 429.188,304.182 643.75,456.25c80.885,59.147 229.426,144.267 287.5,218.75c-67.702,-33.33 -135.424,-66.67 -203.125,-100c-114.278,-45.003 -242.456,-55.311 -368.75,-93.75c-47.913,-17.707 -95.838,-35.419 -143.75,-53.125c48.953,44.787 97.921,89.588 146.875,134.375c118.738,122.904 237.511,245.845 356.25,368.75c145.414,164.177 297.48,316.221 365.625,559.375c-37.497,-52.078 -75.004,-104.172 -112.5,-156.25c-82.722,-107.236 -176.572,-208.068 -268.75,-306.25c-47.577,-50.676 -91.721,-114.041 -153.125,-150l-3.125,0l-0,3.125c74.992,129.154 150.007,258.346 225,387.5c-40.894,-12.034 -68.948,-65.587 -100,-90.625c-136.439,-110.017 -223.28,-261.103 -321.875,-409.375c-90.617,-133.321 -181.259,-266.68 -271.875,-400c-63.536,-74.993 -127.09,-150.008 -190.625,-225c-140.611,-145.819 -281.264,-291.682 -421.875,-437.5c-47.913,-45.829 -95.838,-91.672 -143.75,-137.5Z"/><path d="M5778.12,9175.42c124.987,91.657 250.012,183.342 375,275c288.063,203.276 593.903,406.218 921.875,565.625c-118.739,-74.993 -237.512,-150.008 -356.25,-225c-186.078,-126.562 -380.273,-246.352 -568.75,-371.875c-120.85,-80.485 -238.583,-178.025 -371.875,-243.75Z"/><path d="M4215.62,9200.42c6.686,30.103 -101.885,194.407 -121.875,231.25c-127.167,234.377 -238.184,518.126 -478.125,640.625c19.789,-20.831 39.585,-41.669 59.375,-62.5c49.995,-62.494 100.005,-125.007 150,-187.5c130.195,-207.271 260.429,-414.604 390.625,-621.875Z"/><path d="M893.75,9206.67c-4.166,40.621 -8.334,81.254 -12.5,121.875c2.083,72.909 4.166,145.841 6.25,218.75c19.038,100.617 49.038,184.334 84.375,268.75c17.706,33.33 35.418,66.67 53.125,100l-3.125,0c-67.654,-57.453 -203.365,-282.979 -184.375,-418.75c18.748,-96.866 37.502,-193.76 56.25,-290.625Z"/><path d="M8953.12,9309.8c61.368,10.759 104.238,73.1 146.875,106.25l3.125,0c1.041,-6.25 2.083,-12.501 3.125,-18.75c3.124,2.083 6.25,4.167 9.375,6.25c3.088,45.754 31.523,68.951 50,100l-9.375,0c-3.125,-2.083 -6.251,-4.167 -9.375,-6.25c-45.168,-83.456 -131.104,-118.786 -196.875,-181.25c1.041,-2.083 2.083,-4.167 3.125,-6.25Z"/><path d="M3837.5,9475.42c-35.413,61.452 -70.837,122.923 -106.25,184.375c-22.915,42.704 -45.836,85.42 -68.75,128.125c-95.176,141.515 -279.863,254.586 -443.75,325c95.824,-72.909 191.676,-145.841 287.5,-218.75c136.971,-109.11 231.169,-272.856 331.25,-418.75Z"/><path d="M6700,9709.8c52.563,63.447 144.408,105.216 215.625,150c130.328,81.956 257.633,169.035 403.125,240.625c-50.356,-53.613 -131.87,-83.293 -193.75,-125c-76.31,-51.433 -155.316,-98.56 -234.375,-150c-58.134,-37.825 -120.708,-92.692 -190.625,-115.625Z"/><path d="M7340.62,10194.2c20.661,22.358 56.462,45.565 87.5,56.25c-29.164,-18.748 -58.337,-37.502 -87.5,-56.25Z"/></g></svg>