<svg width="100%" height="100%" viewBox="0 0 400 400" version="1.1"
    xmlns="http://www.w3.org/2000/svg"
    xmlns:xlink="http://www.w3.org/1999/xlink" xml:space="preserve"
    xmlns:serif="http://www.serif.com/" style="fill-rule:evenodd;clip-rule:evenodd;stroke-linejoin:round;stroke-miterlimit:2;">
    <path d="M229.166,117.473c-4.845,-53.579 -8.22,-110.525 -8.22,-110.525c-44.543,30.977 -57.811,82.259 -60.326,124.175c-2.039,33.923 -18.825,65.266 -46.605,84.839c-43.978,30.985 -91.606,62.38 -91.606,62.38c49.101,23.087 100.144,8.936 137.701,-9.844c30.396,-15.198 65.935,-16.329 96.777,-2.058c48.822,22.594 99.826,48.145 99.826,48.145c-4.558,-54.064 -42.334,-91.196 -77.376,-114.331c-28.365,-18.725 -47.114,-48.934 -50.171,-82.781Zm-29.146,103.413c-11.556,-0 -20.926,-9.371 -20.926,-20.926c-0,-11.556 9.37,-20.927 20.926,-20.927c11.555,0 20.926,9.371 20.926,20.927c-0,11.555 -9.371,20.926 -20.926,20.926Z" style="fill:rgba(0,0,0,1);" />
</svg>